<svg width="81" height="44" viewBox="0 0 81 44" fill="none" xmlns="http://www.w3.org/2000/svg">
<path d="M29.0288 26.3539C28.0406 26.7323 27.0178 27.0129 25.9752 27.1916C24.9323 27.4226 23.8714 27.5628 22.8045 27.6105C18.9056 27.6105 16.9561 26.1194 16.9561 23.1372C16.9561 20.8 18.0186 18.925 20.1435 17.5121C22.0739 16.2792 24.3215 15.6387 26.6101 15.6691L29.0455 15.6398L29.0288 26.3539ZM27.9469 16.8586C27.6891 16.7836 27.4215 16.7483 27.1532 16.7539C25.0741 16.7068 23.0175 17.1942 21.1795 18.1696C19.1103 19.3257 18.0771 20.9787 18.0798 23.1288C18.0707 23.6816 18.2244 24.2247 18.5216 24.6904C18.8188 25.156 19.2464 25.5234 19.7508 25.7466C20.7381 26.2441 21.8338 26.4861 22.9382 26.4503C25.1243 26.4503 26.7786 26.1445 27.9009 25.533V22.199C27.9009 21.5916 27.9009 20.6911 27.9344 19.5058C27.9678 18.3204 27.9469 17.4283 27.9469 16.8586Z" fill="#00CF8D"/>
<path d="M45.5714 20.0042C45.5714 22.3246 44.5312 24.1899 42.4509 25.6C40.5154 26.8729 38.2398 27.5258 35.9258 27.4723H34.5347V38.0607H33.3901V26.1487C33.5906 26.266 34.4303 26.3288 35.8965 26.3288C37.9859 26.3874 40.043 25.8027 41.7909 24.6534C43.537 23.4639 44.4087 21.9281 44.4059 20.0461C44.4166 19.5114 44.2616 18.9867 43.9624 18.5441C43.6631 18.1015 43.2342 17.7628 42.7349 17.5749C41.6669 17.1214 40.5327 16.8442 39.3763 16.7539C39.2552 16.733 38.6411 16.7539 37.5424 16.7832C36.5343 16.8028 35.1502 16.8642 33.3901 16.9675V15.7948C35.6737 15.6691 37.3976 15.6175 38.5617 15.6398C43.2376 15.651 45.5742 17.1058 45.5714 20.0042Z" fill="#00CF8D"/>
<path d="M61.4079 20.0042C61.4079 22.3246 60.3691 24.1899 58.2916 25.6C56.3649 26.8649 54.1024 27.5174 51.7999 27.4723H50.3921V38.0607H49.2475V26.1487C49.448 26.266 50.2918 26.3288 51.7539 26.3288C53.8434 26.388 55.9006 25.8032 57.6483 24.6534C59.3944 23.4639 60.2675 21.9281 60.2675 20.0461C60.2782 19.5115 60.1232 18.9867 59.8239 18.5441C59.5247 18.1015 59.0958 17.7628 58.5965 17.5749C57.5244 17.1206 56.3859 16.8433 55.2254 16.7539C55.1042 16.733 54.4943 16.7539 53.3915 16.7833C52.3889 16.8028 51.0048 16.8642 49.2391 16.9675V15.7948C51.5284 15.6691 53.2494 15.6189 54.4149 15.6398C59.0769 15.651 61.4079 17.1058 61.4079 20.0042Z" fill="#00CF8D"/>
<path d="M66.8971 27.0827H65.6438C65.202 26.3916 64.9913 25.5774 65.0423 24.7581V5.09738H66.1869V24.7581C66.1892 25.5863 66.4363 26.3953 66.8971 27.0827Z" fill="#00CF8D"/>
<path d="M72.5491 27.644H71.2958C70.8507 26.945 70.64 26.1218 70.6943 25.2942V15.7445H71.8347V25.2733C71.8386 26.1163 72.0868 26.9399 72.5491 27.644Z" fill="#00CF8D"/>
<path d="M75.5694 44H14.0988C12.8771 43.9991 11.6913 43.5853 10.7332 42.8252C9.77502 42.0652 9.10048 41.0034 8.81854 39.8115L9.63313 39.6188C9.8808 40.621 10.4541 41.512 11.2627 42.1513C12.0713 42.7906 13.0691 43.1419 14.0988 43.1497H75.5694C76.7881 43.1497 77.9569 42.6643 78.8187 41.8003C79.6804 40.9362 80.1645 39.7643 80.1645 38.5424V5.44503C80.1645 4.22309 79.6804 3.05119 78.8187 2.18715C77.9569 1.32311 76.7881 0.837696 75.5694 0.837696H14.0988C12.8801 0.837696 11.7113 1.32311 10.8495 2.18715C9.98776 3.05119 9.50363 4.22309 9.50363 5.44503V33.1225H8.66815V5.44503C8.66815 4.00092 9.24031 2.61595 10.2587 1.59481C11.2772 0.573671 12.6585 0 14.0988 0L75.5694 0C77.0097 0 78.391 0.573671 79.4094 1.59481C80.4279 2.61595 81 4.00092 81 5.44503V38.555C81 39.9991 80.4279 41.384 79.4094 42.4052C78.391 43.4263 77.0097 44 75.5694 44Z" fill="#00CF8D"/>
<path d="M5.06302 41.4031L5.1591 38.7895L0.95245 40.423L0 37.9476L4.20665 36.3141L2.3853 34.4377L12.244 34.5508L9.86705 36.9298L5.06302 41.4031ZM6.04054 37.5497L5.9737 39.4136L9.29056 36.3267L10.243 35.3675H8.91877L4.39046 35.3089L5.68963 36.645L1.09448 38.4377L1.44538 39.3466L6.04054 37.5497Z" fill="#00CF8D"/>
</svg>
